<?xml version="1.0" encoding="us-ascii" standalone="no"?><svg xmlns="http://www.w3.org/2000/svg" xmlns:xlink="http://www.w3.org/1999/xlink" contentStyleType="text/css" height="316px" preserveAspectRatio="none" style="width:499px;height:316px;background:#FFFFFF;" version="1.1" viewBox="0 0 499 316" width="499px" zoomAndPan="magnify"><defs/><g><text fill="#000000" font-family="sans-serif" font-size="14" font-weight="bold" lengthAdjust="spacing" textLength="471" x="10" y="24.5332">EmigaHospitalOrganization (Profile of Organization) - Class Diagram</text><!--class EmigaHospitalOrganization--><g id="elem_EmigaHospitalOrganization"><rect codeLine="3" fill="#F1F1F1" height="48" id="EmigaHospitalOrganization" rx="2.5" ry="2.5" style="stroke:#181818;stroke-width:0.5;" width="201" x="108.25" y="261.6094"/><ellipse cx="123.25" cy="277.6094" fill="#ADD1B2" rx="11" ry="11" style="stroke:#181818;stroke-width:1.0;"/><path d="M126.0156,273.4844 Q126.1719,273.2656 126.3594,273.1563 Q126.5469,273.0469 126.7656,273.0469 Q127.1406,273.0469 127.375,273.3125 Q127.6094,273.5625 127.6094,274.1719 L127.6094,275.625 Q127.6094,276.2344 127.375,276.5 Q127.1406,276.7656 126.7656,276.7656 Q126.4219,276.7656 126.2188,276.5625 Q126.0156,276.375 125.9063,275.8594 Q125.8594,275.5 125.6719,275.3125 Q125.3438,274.9375 124.7344,274.7188 Q124.125,274.5 123.5,274.5 Q122.7344,274.5 122.0938,274.8281 Q121.4688,275.1563 120.9688,275.9063 Q120.4844,276.6563 120.4844,277.6875 L120.4844,278.7813 Q120.4844,280.0156 121.375,280.8438 Q122.2656,281.6563 123.8594,281.6563 Q124.7969,281.6563 125.4531,281.4063 Q125.8438,281.25 126.2656,280.8125 Q126.5313,280.5469 126.6719,280.4688 Q126.8281,280.3906 127.0313,280.3906 Q127.3594,280.3906 127.6094,280.6563 Q127.875,280.9063 127.875,281.25 Q127.875,281.5938 127.5313,282 Q127.0313,282.5781 126.2344,282.9063 Q125.1563,283.3594 123.8594,283.3594 Q122.3438,283.3594 121.1406,282.7344 Q120.1563,282.2344 119.4688,281.1719 Q118.7813,280.0938 118.7813,278.8125 L118.7813,277.6563 Q118.7813,276.3281 119.3906,275.1875 Q120.0156,274.0313 121.1094,273.4219 Q122.2031,272.7969 123.4375,272.7969 Q124.1719,272.7969 124.8125,272.9688 Q125.4688,273.125 126.0156,273.4844 Z " fill="#000000"/><text fill="#000000" font-family="sans-serif" font-size="14" lengthAdjust="spacing" textLength="169" x="137.25" y="283.3379">EmigaHospitalOrganization</text><line style="stroke:#181818;stroke-width:0.5;" x1="109.25" x2="308.25" y1="293.6094" y2="293.6094"/><line style="stroke:#181818;stroke-width:0.5;" x1="109.25" x2="308.25" y1="301.6094" y2="301.6094"/></g><!--class EmigaHospitalLocation--><g id="elem_EmigaHospitalLocation"><rect codeLine="5" fill="#F1F1F1" height="48" id="EmigaHospitalLocation" rx="2.5" ry="2.5" style="stroke:#181818;stroke-width:0.5;" width="175" x="192.25" y="153.6094"/><ellipse cx="207.25" cy="169.6094" fill="#ADD1B2" rx="11" ry="11" style="stroke:#181818;stroke-width:1.0;"/><path d="M210.0156,165.4844 Q210.1719,165.2656 210.3594,165.1563 Q210.5469,165.0469 210.7656,165.0469 Q211.1406,165.0469 211.375,165.3125 Q211.6094,165.5625 211.6094,166.1719 L211.6094,167.625 Q211.6094,168.2344 211.375,168.5 Q211.1406,168.7656 210.7656,168.7656 Q210.4219,168.7656 210.2188,168.5625 Q210.0156,168.375 209.9063,167.8594 Q209.8594,167.5 209.6719,167.3125 Q209.3438,166.9375 208.7344,166.7188 Q208.125,166.5 207.5,166.5 Q206.7344,166.5 206.0938,166.8281 Q205.4688,167.1563 204.9688,167.9063 Q204.4844,168.6563 204.4844,169.6875 L204.4844,170.7813 Q204.4844,172.0156 205.375,172.8438 Q206.2656,173.6563 207.8594,173.6563 Q208.7969,173.6563 209.4531,173.4063 Q209.8438,173.25 210.2656,172.8125 Q210.5313,172.5469 210.6719,172.4688 Q210.8281,172.3906 211.0313,172.3906 Q211.3594,172.3906 211.6094,172.6563 Q211.875,172.9063 211.875,173.25 Q211.875,173.5938 211.5313,174 Q211.0313,174.5781 210.2344,174.9063 Q209.1563,175.3594 207.8594,175.3594 Q206.3438,175.3594 205.1406,174.7344 Q204.1563,174.2344 203.4688,173.1719 Q202.7813,172.0938 202.7813,170.8125 L202.7813,169.6563 Q202.7813,168.3281 203.3906,167.1875 Q204.0156,166.0313 205.1094,165.4219 Q206.2031,164.7969 207.4375,164.7969 Q208.1719,164.7969 208.8125,164.9688 Q209.4688,165.125 210.0156,165.4844 Z " fill="#000000"/><text fill="#000000" font-family="sans-serif" font-size="14" lengthAdjust="spacing" textLength="143" x="221.25" y="175.3379">EmigaHospitalLocation</text><line style="stroke:#181818;stroke-width:0.5;" x1="193.25" x2="366.25" y1="185.6094" y2="185.6094"/><line style="stroke:#181818;stroke-width:0.5;" x1="193.25" x2="366.25" y1="193.6094" y2="193.6094"/></g><!--class EmigaHospitalRoomLocation--><g id="elem_EmigaHospitalRoomLocation"><rect codeLine="7" fill="#F1F1F1" height="48" id="EmigaHospitalRoomLocation" rx="2.5" ry="2.5" style="stroke:#181818;stroke-width:0.5;" width="212" x="102.75" y="45.6094"/><ellipse cx="117.75" cy="61.6094" fill="#ADD1B2" rx="11" ry="11" style="stroke:#181818;stroke-width:1.0;"/><path d="M120.5156,57.4844 Q120.6719,57.2656 120.8594,57.1563 Q121.0469,57.0469 121.2656,57.0469 Q121.6406,57.0469 121.875,57.3125 Q122.1094,57.5625 122.1094,58.1719 L122.1094,59.625 Q122.1094,60.2344 121.875,60.5 Q121.6406,60.7656 121.2656,60.7656 Q120.9219,60.7656 120.7188,60.5625 Q120.5156,60.375 120.4063,59.8594 Q120.3594,59.5 120.1719,59.3125 Q119.8438,58.9375 119.2344,58.7188 Q118.625,58.5 118,58.5 Q117.2344,58.5 116.5938,58.8281 Q115.9688,59.1563 115.4688,59.9063 Q114.9844,60.6563 114.9844,61.6875 L114.9844,62.7813 Q114.9844,64.0156 115.875,64.8438 Q116.7656,65.6563 118.3594,65.6563 Q119.2969,65.6563 119.9531,65.4063 Q120.3438,65.25 120.7656,64.8125 Q121.0313,64.5469 121.1719,64.4688 Q121.3281,64.3906 121.5313,64.3906 Q121.8594,64.3906 122.1094,64.6563 Q122.375,64.9063 122.375,65.25 Q122.375,65.5938 122.0313,66 Q121.5313,66.5781 120.7344,66.9063 Q119.6563,67.3594 118.3594,67.3594 Q116.8438,67.3594 115.6406,66.7344 Q114.6563,66.2344 113.9688,65.1719 Q113.2813,64.0938 113.2813,62.8125 L113.2813,61.6563 Q113.2813,60.3281 113.8906,59.1875 Q114.5156,58.0313 115.6094,57.4219 Q116.7031,56.7969 117.9375,56.7969 Q118.6719,56.7969 119.3125,56.9688 Q119.9688,57.125 120.5156,57.4844 Z " fill="#000000"/><text fill="#000000" font-family="sans-serif" font-size="14" lengthAdjust="spacing" textLength="180" x="131.75" y="67.3379">EmigaHospitalRoomLocation</text><line style="stroke:#181818;stroke-width:0.5;" x1="103.75" x2="313.75" y1="77.6094" y2="77.6094"/><line style="stroke:#181818;stroke-width:0.5;" x1="103.75" x2="313.75" y1="85.6094" y2="85.6094"/></g><!--link EmigaHospitalOrganization to EmigaHospitalOrganization--><g id="link_EmigaHospitalOrganization_EmigaHospitalOrganization"><path codeLine="10" d="M309.5,266.1594 C329.77,268.3194 344.25,274.7994 344.25,285.6094 C344.25,296.4194 335.7362,302.2636 315.4662,304.4236 " fill="none" id="EmigaHospitalOrganization-to-EmigaHospitalOrganization" style="stroke:#181818;stroke-width:1.0;stroke-dasharray:7.0,7.0;"/><polygon fill="#181818" points="309.5,305.0594,318.8732,308.0832,314.4719,304.5296,318.0255,300.1282,309.5,305.0594" style="stroke:#181818;stroke-width:1.0;"/></g><!--link EmigaHospitalLocation to EmigaHospitalOrganization--><g id="link_EmigaHospitalLocation_EmigaHospitalOrganization"><path codeLine="11" d="M264.34,201.6094 C252.52,219.2694 239.5886,238.564 227.7086,256.304 " fill="none" id="EmigaHospitalLocation-to-EmigaHospitalOrganization" style="stroke:#181818;stroke-width:1.0;"/><polygon fill="#181818" points="224.37,261.2894,232.7014,256.037,227.1521,257.1349,226.0543,251.5856,224.37,261.2894" style="stroke:#181818;stroke-width:1.0;"/></g><!--link EmigaHospitalLocation to EmigaHospitalLocation--><g id="link_EmigaHospitalLocation_EmigaHospitalLocation"><path codeLine="12" d="M367.29,157.8094 C387.44,159.5094 402.25,166.1094 402.25,177.6094 C402.25,189.1094 393.4188,195.205 373.2688,196.905 " fill="none" id="EmigaHospitalLocation-to-EmigaHospitalLocation" style="stroke:#181818;stroke-width:1.0;stroke-dasharray:7.0,7.0;"/><polygon fill="#181818" points="367.29,197.4094,376.5944,200.6386,372.2723,196.989,375.9219,192.6669,367.29,197.4094" style="stroke:#181818;stroke-width:1.0;"/></g><!--link EmigaHospitalRoomLocation to EmigaHospitalOrganization--><g id="link_EmigaHospitalRoomLocation_EmigaHospitalOrganization"><path codeLine="13" d="M196.38,93.8194 C188.46,110.0494 178.9,132.5294 174.75,153.6094 C170.63,174.5394 170.63,180.6794 174.75,201.6094 C178.9,222.6894 185.8287,239.7771 193.7487,256.0071 " fill="none" id="EmigaHospitalRoomLocation-to-EmigaHospitalOrganization" style="stroke:#181818;stroke-width:1.0;"/><polygon fill="#181818" points="196.38,261.3994,196.0278,251.5568,194.1872,256.9059,188.8382,255.0653,196.38,261.3994" style="stroke:#181818;stroke-width:1.0;"/></g><!--link EmigaHospitalRoomLocation to EmigaHospitalLocation--><g id="link_EmigaHospitalRoomLocation_EmigaHospitalLocation"><path codeLine="14" d="M224.16,93.6094 C235.98,111.2694 248.9114,130.564 260.7914,148.304 " fill="none" id="EmigaHospitalRoomLocation-to-EmigaHospitalLocation" style="stroke:#181818;stroke-width:1.0;"/><polygon fill="#181818" points="264.13,153.2894,262.4457,143.5856,261.3479,149.1349,255.7986,148.037,264.13,153.2894" style="stroke:#181818;stroke-width:1.0;"/></g><!--SRC=[AyaioKbLSCtDJ4_qo2yko2n9pF4lIa_CownABCdCprFG22ZAJyi4AibFKq2Mq5JGLN3EIImkLd39J4mlIipbuae6St4QLSrLYqs9JtuoFkcW_FnSP2LSk9sgfsU7stOkh9OgwEgIhWV37fWC5qwNas8FVdqm6G00]--></g></svg>