<?xml version="1.0" encoding="us-ascii" standalone="no"?><svg xmlns="http://www.w3.org/2000/svg" xmlns:xlink="http://www.w3.org/1999/xlink" contentStyleType="text/css" height="316px" preserveAspectRatio="none" style="width:442px;height:316px;background:#FFFFFF;" version="1.1" viewBox="0 0 442 316" width="442px" zoomAndPan="magnify"><defs/><g><text fill="#000000" font-family="sans-serif" font-size="14" font-weight="bold" lengthAdjust="spacing" textLength="414" x="10" y="24.5332">EmigaOrganization (Profile of Organization) - Class Diagram</text><!--class EmigaOrganization--><g id="elem_EmigaOrganization"><rect codeLine="3" fill="#F1F1F1" height="48" id="EmigaOrganization" rx="2.5" ry="2.5" style="stroke:#181818;stroke-width:0.5;" width="151" x="28" y="261.6094"/><ellipse cx="43" cy="277.6094" fill="#ADD1B2" rx="11" ry="11" style="stroke:#181818;stroke-width:1.0;"/><path d="M45.7656,273.4844 Q45.9219,273.2656 46.1094,273.1563 Q46.2969,273.0469 46.5156,273.0469 Q46.8906,273.0469 47.125,273.3125 Q47.3594,273.5625 47.3594,274.1719 L47.3594,275.625 Q47.3594,276.2344 47.125,276.5 Q46.8906,276.7656 46.5156,276.7656 Q46.1719,276.7656 45.9688,276.5625 Q45.7656,276.375 45.6563,275.8594 Q45.6094,275.5 45.4219,275.3125 Q45.0938,274.9375 44.4844,274.7188 Q43.875,274.5 43.25,274.5 Q42.4844,274.5 41.8438,274.8281 Q41.2188,275.1563 40.7188,275.9063 Q40.2344,276.6563 40.2344,277.6875 L40.2344,278.7813 Q40.2344,280.0156 41.125,280.8438 Q42.0156,281.6563 43.6094,281.6563 Q44.5469,281.6563 45.2031,281.4063 Q45.5938,281.25 46.0156,280.8125 Q46.2813,280.5469 46.4219,280.4688 Q46.5781,280.3906 46.7813,280.3906 Q47.1094,280.3906 47.3594,280.6563 Q47.625,280.9063 47.625,281.25 Q47.625,281.5938 47.2813,282 Q46.7813,282.5781 45.9844,282.9063 Q44.9063,283.3594 43.6094,283.3594 Q42.0938,283.3594 40.8906,282.7344 Q39.9063,282.2344 39.2188,281.1719 Q38.5313,280.0938 38.5313,278.8125 L38.5313,277.6563 Q38.5313,276.3281 39.1406,275.1875 Q39.7656,274.0313 40.8594,273.4219 Q41.9531,272.7969 43.1875,272.7969 Q43.9219,272.7969 44.5625,272.9688 Q45.2188,273.125 45.7656,273.4844 Z " fill="#000000"/><text fill="#000000" font-family="sans-serif" font-size="14" lengthAdjust="spacing" textLength="119" x="57" y="283.3379">EmigaOrganization</text><line style="stroke:#181818;stroke-width:0.5;" x1="29" x2="178" y1="293.6094" y2="293.6094"/><line style="stroke:#181818;stroke-width:0.5;" x1="29" x2="178" y1="301.6094" y2="301.6094"/></g><!--class EmigaLocation--><g id="elem_EmigaLocation"><rect codeLine="6" fill="#F1F1F1" height="48" id="EmigaLocation" rx="2.5" ry="2.5" style="stroke:#181818;stroke-width:0.5;" width="125" x="99" y="153.6094"/><ellipse cx="114" cy="169.6094" fill="#ADD1B2" rx="11" ry="11" style="stroke:#181818;stroke-width:1.0;"/><path d="M116.7656,165.4844 Q116.9219,165.2656 117.1094,165.1563 Q117.2969,165.0469 117.5156,165.0469 Q117.8906,165.0469 118.125,165.3125 Q118.3594,165.5625 118.3594,166.1719 L118.3594,167.625 Q118.3594,168.2344 118.125,168.5 Q117.8906,168.7656 117.5156,168.7656 Q117.1719,168.7656 116.9688,168.5625 Q116.7656,168.375 116.6563,167.8594 Q116.6094,167.5 116.4219,167.3125 Q116.0938,166.9375 115.4844,166.7188 Q114.875,166.5 114.25,166.5 Q113.4844,166.5 112.8438,166.8281 Q112.2188,167.1563 111.7188,167.9063 Q111.2344,168.6563 111.2344,169.6875 L111.2344,170.7813 Q111.2344,172.0156 112.125,172.8438 Q113.0156,173.6563 114.6094,173.6563 Q115.5469,173.6563 116.2031,173.4063 Q116.5938,173.25 117.0156,172.8125 Q117.2813,172.5469 117.4219,172.4688 Q117.5781,172.3906 117.7813,172.3906 Q118.1094,172.3906 118.3594,172.6563 Q118.625,172.9063 118.625,173.25 Q118.625,173.5938 118.2813,174 Q117.7813,174.5781 116.9844,174.9063 Q115.9063,175.3594 114.6094,175.3594 Q113.0938,175.3594 111.8906,174.7344 Q110.9063,174.2344 110.2188,173.1719 Q109.5313,172.0938 109.5313,170.8125 L109.5313,169.6563 Q109.5313,168.3281 110.1406,167.1875 Q110.7656,166.0313 111.8594,165.4219 Q112.9531,164.7969 114.1875,164.7969 Q114.9219,164.7969 115.5625,164.9688 Q116.2188,165.125 116.7656,165.4844 Z " fill="#000000"/><text fill="#000000" font-family="sans-serif" font-size="14" lengthAdjust="spacing" textLength="93" x="128" y="175.3379">EmigaLocation</text><line style="stroke:#181818;stroke-width:0.5;" x1="100" x2="223" y1="185.6094" y2="185.6094"/><line style="stroke:#181818;stroke-width:0.5;" x1="100" x2="223" y1="193.6094" y2="193.6094"/></g><!--class EmigaPractitioner--><g id="elem_EmigaPractitioner"><rect codeLine="9" fill="#F1F1F1" height="48" id="EmigaPractitioner" rx="2.5" ry="2.5" style="stroke:#181818;stroke-width:0.5;" width="143" x="277" y="153.6094"/><ellipse cx="292" cy="169.6094" fill="#ADD1B2" rx="11" ry="11" style="stroke:#181818;stroke-width:1.0;"/><path d="M294.7656,165.4844 Q294.9219,165.2656 295.1094,165.1563 Q295.2969,165.0469 295.5156,165.0469 Q295.8906,165.0469 296.125,165.3125 Q296.3594,165.5625 296.3594,166.1719 L296.3594,167.625 Q296.3594,168.2344 296.125,168.5 Q295.8906,168.7656 295.5156,168.7656 Q295.1719,168.7656 294.9688,168.5625 Q294.7656,168.375 294.6563,167.8594 Q294.6094,167.5 294.4219,167.3125 Q294.0938,166.9375 293.4844,166.7188 Q292.875,166.5 292.25,166.5 Q291.4844,166.5 290.8438,166.8281 Q290.2188,167.1563 289.7188,167.9063 Q289.2344,168.6563 289.2344,169.6875 L289.2344,170.7813 Q289.2344,172.0156 290.125,172.8438 Q291.0156,173.6563 292.6094,173.6563 Q293.5469,173.6563 294.2031,173.4063 Q294.5938,173.25 295.0156,172.8125 Q295.2813,172.5469 295.4219,172.4688 Q295.5781,172.3906 295.7813,172.3906 Q296.1094,172.3906 296.3594,172.6563 Q296.625,172.9063 296.625,173.25 Q296.625,173.5938 296.2813,174 Q295.7813,174.5781 294.9844,174.9063 Q293.9063,175.3594 292.6094,175.3594 Q291.0938,175.3594 289.8906,174.7344 Q288.9063,174.2344 288.2188,173.1719 Q287.5313,172.0938 287.5313,170.8125 L287.5313,169.6563 Q287.5313,168.3281 288.1406,167.1875 Q288.7656,166.0313 289.8594,165.4219 Q290.9531,164.7969 292.1875,164.7969 Q292.9219,164.7969 293.5625,164.9688 Q294.2188,165.125 294.7656,165.4844 Z " fill="#000000"/><text fill="#000000" font-family="sans-serif" font-size="14" lengthAdjust="spacing" textLength="111" x="306" y="175.3379">EmigaPractitioner</text><line style="stroke:#181818;stroke-width:0.5;" x1="278" x2="419" y1="185.6094" y2="185.6094"/><line style="stroke:#181818;stroke-width:0.5;" x1="278" x2="419" y1="193.6094" y2="193.6094"/></g><!--class EmigaPractitionerRole--><g id="elem_EmigaPractitionerRole"><rect codeLine="12" fill="#F1F1F1" height="48" id="EmigaPractitionerRole" rx="2.5" ry="2.5" style="stroke:#181818;stroke-width:0.5;" width="172" x="75.5" y="45.6094"/><ellipse cx="90.5" cy="61.6094" fill="#ADD1B2" rx="11" ry="11" style="stroke:#181818;stroke-width:1.0;"/><path d="M93.2656,57.4844 Q93.4219,57.2656 93.6094,57.1563 Q93.7969,57.0469 94.0156,57.0469 Q94.3906,57.0469 94.625,57.3125 Q94.8594,57.5625 94.8594,58.1719 L94.8594,59.625 Q94.8594,60.2344 94.625,60.5 Q94.3906,60.7656 94.0156,60.7656 Q93.6719,60.7656 93.4688,60.5625 Q93.2656,60.375 93.1563,59.8594 Q93.1094,59.5 92.9219,59.3125 Q92.5938,58.9375 91.9844,58.7188 Q91.375,58.5 90.75,58.5 Q89.9844,58.5 89.3438,58.8281 Q88.7188,59.1563 88.2188,59.9063 Q87.7344,60.6563 87.7344,61.6875 L87.7344,62.7813 Q87.7344,64.0156 88.625,64.8438 Q89.5156,65.6563 91.1094,65.6563 Q92.0469,65.6563 92.7031,65.4063 Q93.0938,65.25 93.5156,64.8125 Q93.7813,64.5469 93.9219,64.4688 Q94.0781,64.3906 94.2813,64.3906 Q94.6094,64.3906 94.8594,64.6563 Q95.125,64.9063 95.125,65.25 Q95.125,65.5938 94.7813,66 Q94.2813,66.5781 93.4844,66.9063 Q92.4063,67.3594 91.1094,67.3594 Q89.5938,67.3594 88.3906,66.7344 Q87.4063,66.2344 86.7188,65.1719 Q86.0313,64.0938 86.0313,62.8125 L86.0313,61.6563 Q86.0313,60.3281 86.6406,59.1875 Q87.2656,58.0313 88.3594,57.4219 Q89.4531,56.7969 90.6875,56.7969 Q91.4219,56.7969 92.0625,56.9688 Q92.7188,57.125 93.2656,57.4844 Z " fill="#000000"/><text fill="#000000" font-family="sans-serif" font-size="14" lengthAdjust="spacing" textLength="140" x="104.5" y="67.3379">EmigaPractitionerRole</text><line style="stroke:#181818;stroke-width:0.5;" x1="76.5" x2="246.5" y1="77.6094" y2="77.6094"/><line style="stroke:#181818;stroke-width:0.5;" x1="76.5" x2="246.5" y1="85.6094" y2="85.6094"/></g><!--link EmigaOrganization to EmigaOrganization--><g id="link_EmigaOrganization_EmigaOrganization"><path codeLine="15" d="M179.16,265.5494 C199,266.7394 214,273.4294 214,285.6094 C214,297.7894 204.9892,304.1201 185.1492,305.3101 " fill="none" id="EmigaOrganization-to-EmigaOrganization" style="stroke:#181818;stroke-width:1.0;stroke-dasharray:7.0,7.0;"/><polygon fill="#181818" points="179.16,305.6694,188.3833,309.1233,184.151,305.37,187.9044,301.1377,179.16,305.6694" style="stroke:#181818;stroke-width:1.0;"/></g><!--link EmigaLocation to EmigaOrganization--><g id="link_EmigaLocation_EmigaOrganization"><path codeLine="16" d="M148.91,201.6094 C139.25,219.2694 128.8508,238.2862 119.1408,256.0262 " fill="none" id="EmigaLocation-to-EmigaOrganization" style="stroke:#181818;stroke-width:1.0;"/><polygon fill="#181818" points="116.26,261.2894,124.09,255.3151,118.6607,256.9034,117.0724,251.4741,116.26,261.2894" style="stroke:#181818;stroke-width:1.0;"/></g><!--link EmigaLocation to EmigaLocation--><g id="link_EmigaLocation_EmigaLocation"><path codeLine="17" d="M224.33,157.3794 C243.75,157.7894 259,164.5294 259,177.6094 C259,190.6894 249.7487,197.3027 230.3287,197.7127 " fill="none" id="EmigaLocation-to-EmigaLocation" style="stroke:#181818;stroke-width:1.0;stroke-dasharray:7.0,7.0;"/><polygon fill="#181818" points="224.33,197.8394,233.4124,201.6485,229.3289,197.7338,233.2436,193.6503,224.33,197.8394" style="stroke:#181818;stroke-width:1.0;"/></g><!--link EmigaPractitionerRole to EmigaPractitioner--><g id="link_EmigaPractitionerRole_EmigaPractitioner"><path codeLine="19" d="M202.08,93.6094 C233.33,111.3294 271.14,132.761 302.46,150.511 " fill="none" id="EmigaPractitionerRole-to-EmigaPractitioner" style="stroke:#181818;stroke-width:1.0;"/><polygon fill="#181818" points="307.68,153.4694,301.8222,145.5519,303.33,151.0041,297.8778,152.5119,307.68,153.4694" style="stroke:#181818;stroke-width:1.0;"/></g><!--link EmigaPractitionerRole to EmigaOrganization--><g id="link_EmigaPractitionerRole_EmigaOrganization"><path codeLine="20" d="M129.1,93.9494 C111.4,108.7794 91.16,129.6694 81.5,153.6094 C67,189.5394 78.6734,229.2031 90.0134,256.0231 " fill="none" id="EmigaPractitionerRole-to-EmigaOrganization" style="stroke:#181818;stroke-width:1.0;"/><polygon fill="#181818" points="92.35,261.5494,92.5293,251.7021,90.4028,256.9441,85.1608,254.8177,92.35,261.5494" style="stroke:#181818;stroke-width:1.0;"/></g><!--link EmigaPractitionerRole to EmigaLocation--><g id="link_EmigaPractitionerRole_EmigaLocation"><path codeLine="21" d="M161.5,93.6094 C161.5,111.2694 161.5,129.5494 161.5,147.2894 " fill="none" id="EmigaPractitionerRole-to-EmigaLocation" style="stroke:#181818;stroke-width:1.0;"/><polygon fill="#181818" points="161.5,153.2894,165.5,144.2894,161.5,148.2894,157.5,144.2894,161.5,153.2894" style="stroke:#181818;stroke-width:1.0;"/></g><!--SRC=[AyaioKbLSCtDJ4_qBqfFpCkiIYp9pCzJq0Weoa_B14hbfoaWIsWgw2euvoGM5okuP2Qc5oNcSd4bWxaOHbHprQB8-UGdOnKFA4fCBia4oQGMuPCBoiz91SjZEbPFpmxJVYuKMnLqTGchWPi34u5QXkuCX678CeJKObgCMotC0G00]--></g></svg>