<?xml version="1.0" encoding="us-ascii" standalone="no"?><svg xmlns="http://www.w3.org/2000/svg" xmlns:xlink="http://www.w3.org/1999/xlink" contentStyleType="text/css" height="354px" preserveAspectRatio="none" style="width:569px;height:354px;background:#FFFFFF;" version="1.1" viewBox="0 0 569 354" width="569px" zoomAndPan="magnify"><defs/><g><text fill="#000000" font-family="sans-serif" font-size="14" font-weight="bold" lengthAdjust="spacing" textLength="464" x="48.5" y="24.5332">EmigaPractitionerRole (Profile of PractitionerRole) - Class Diagram</text><!--class EmigaPractitionerRole--><g id="elem_EmigaPractitionerRole"><rect codeLine="6" fill="#F1F1F1" height="294.5313" id="EmigaPractitionerRole" rx="2.5" ry="2.5" style="stroke:#181818;stroke-width:0.5;" width="548" x="7" y="45.6094"/><ellipse cx="206.75" cy="61.6094" fill="#ADD1B2" rx="11" ry="11" style="stroke:#181818;stroke-width:1.0;"/><path d="M209.5156,57.4844 Q209.6719,57.2656 209.8594,57.1563 Q210.0469,57.0469 210.2656,57.0469 Q210.6406,57.0469 210.875,57.3125 Q211.1094,57.5625 211.1094,58.1719 L211.1094,59.625 Q211.1094,60.2344 210.875,60.5 Q210.6406,60.7656 210.2656,60.7656 Q209.9219,60.7656 209.7188,60.5625 Q209.5156,60.375 209.4063,59.8594 Q209.3594,59.5 209.1719,59.3125 Q208.8438,58.9375 208.2344,58.7188 Q207.625,58.5 207,58.5 Q206.2344,58.5 205.5938,58.8281 Q204.9688,59.1563 204.4688,59.9063 Q203.9844,60.6563 203.9844,61.6875 L203.9844,62.7813 Q203.9844,64.0156 204.875,64.8438 Q205.7656,65.6563 207.3594,65.6563 Q208.2969,65.6563 208.9531,65.4063 Q209.3438,65.25 209.7656,64.8125 Q210.0313,64.5469 210.1719,64.4688 Q210.3281,64.3906 210.5313,64.3906 Q210.8594,64.3906 211.1094,64.6563 Q211.375,64.9063 211.375,65.25 Q211.375,65.5938 211.0313,66 Q210.5313,66.5781 209.7344,66.9063 Q208.6563,67.3594 207.3594,67.3594 Q205.8438,67.3594 204.6406,66.7344 Q203.6563,66.2344 202.9688,65.1719 Q202.2813,64.0938 202.2813,62.8125 L202.2813,61.6563 Q202.2813,60.3281 202.8906,59.1875 Q203.5156,58.0313 204.6094,57.4219 Q205.7031,56.7969 206.9375,56.7969 Q207.6719,56.7969 208.3125,56.9688 Q208.9688,57.125 209.5156,57.4844 Z " fill="#000000"/><text fill="#000000" font-family="sans-serif" font-size="14" lengthAdjust="spacing" textLength="140" x="227.25" y="67.3379">EmigaPractitionerRole</text><line style="stroke:#181818;stroke-width:0.5;" x1="8" x2="554" y1="77.6094" y2="77.6094"/><text fill="#000000" font-family="sans-serif" font-size="14" font-weight="bold" lengthAdjust="spacing" textLength="8" x="13" y="117.752">+</text><text fill="#000000" font-family="sans-serif" font-size="14" lengthAdjust="spacing" textLength="132" x="25" y="117.752">active: boolean [1..1]</text><text fill="#000000" font-family="sans-serif" font-size="14" font-weight="bold" lengthAdjust="spacing" textLength="8" x="13" y="135.3613">+</text><text fill="#000000" font-family="sans-serif" font-size="14" lengthAdjust="spacing" textLength="329" x="25" y="135.3613">code:emigaPractitionerRole: CodeableConcept [0..*]</text><text fill="#000000" font-family="sans-serif" font-size="14" font-weight="bold" lengthAdjust="spacing" textLength="8" x="13" y="152.9707">+</text><text fill="#000000" font-family="sans-serif" font-size="14" lengthAdjust="spacing" textLength="385" x="25" y="152.9707">healthcareService: Reference(EmigaHealthcareService) [0..*]</text><text fill="#000000" font-family="sans-serif" font-size="14" font-weight="bold" lengthAdjust="spacing" textLength="8" x="13" y="170.5801">+</text><text fill="#000000" font-family="sans-serif" font-size="14" lengthAdjust="spacing" textLength="262" x="25" y="170.5801">location: Reference(EmigaLocation) [0..1]</text><text fill="#000000" font-family="sans-serif" font-size="14" font-weight="bold" lengthAdjust="spacing" textLength="8" x="13" y="188.1895">+</text><text fill="#000000" font-family="sans-serif" font-size="14" lengthAdjust="spacing" textLength="524" x="25" y="188.1895">organization: Reference(EmigaOrganization | EmigaPublicHealthOrganization) [1..1]</text><text fill="#000000" font-family="sans-serif" font-size="14" font-weight="bold" lengthAdjust="spacing" textLength="8" x="13" y="205.7988">+</text><text fill="#000000" font-family="sans-serif" font-size="14" lengthAdjust="spacing" textLength="302" x="25" y="205.7988">practitioner: Reference(EmigaPractitioner) [1..1]</text><line style="stroke:#181818;stroke-width:1.0;" x1="8" x2="208" y1="94.4141" y2="94.4141"/><text fill="#000000" font-family="sans-serif" font-size="14" lengthAdjust="spacing" textLength="146" x="208" y="99.6426">Practitioner Information</text><line style="stroke:#181818;stroke-width:1.0;" x1="354" x2="554" y1="94.4141" y2="94.4141"/><text fill="#000000" font-family="sans-serif" font-size="14" font-weight="bold" lengthAdjust="spacing" textLength="8" x="13" y="245.0176">+</text><text fill="#000000" font-family="sans-serif" font-size="14" lengthAdjust="spacing" textLength="383" x="25" y="245.0176">meta.profile:emigaprofile: canonical(StructureDefinition) [0..*]</text><text fill="#000000" font-family="sans-serif" font-size="14" font-weight="bold" lengthAdjust="spacing" textLength="8" x="13" y="262.627">+</text><text fill="#000000" font-family="sans-serif" font-size="14" lengthAdjust="spacing" textLength="259" x="25" y="262.627">meta.security:responsibility: Coding [0..1]</text><text fill="#000000" font-family="sans-serif" font-size="14" font-weight="bold" lengthAdjust="spacing" textLength="8" x="13" y="280.2363">+</text><text fill="#000000" font-family="sans-serif" font-size="14" lengthAdjust="spacing" textLength="225" x="25" y="280.2363">meta.security:visibility: Coding [0..1]</text><text fill="#000000" font-family="sans-serif" font-size="14" font-weight="bold" lengthAdjust="spacing" textLength="8" x="13" y="297.8457">+</text><text fill="#000000" font-family="sans-serif" font-size="14" lengthAdjust="spacing" textLength="231" x="25" y="297.8457">meta.tag:orgvBundleId: Coding [0..1]</text><text fill="#000000" font-family="sans-serif" font-size="14" font-weight="bold" lengthAdjust="spacing" textLength="8" x="13" y="315.4551">+</text><text fill="#000000" font-family="sans-serif" font-size="14" lengthAdjust="spacing" textLength="268" x="25" y="315.4551">meta.tag:orgvBundleVersion: Coding [0..1]</text><text fill="#000000" font-family="sans-serif" font-size="14" font-weight="bold" lengthAdjust="spacing" textLength="8" x="13" y="333.0645">+</text><text fill="#000000" font-family="sans-serif" font-size="14" lengthAdjust="spacing" textLength="207" x="25" y="333.0645">meta.tag:relevance: Coding [0..*]</text><line style="stroke:#181818;stroke-width:1.0;" x1="8" x2="265.5" y1="221.6797" y2="221.6797"/><text fill="#000000" font-family="sans-serif" font-size="14" lengthAdjust="spacing" textLength="31" x="265.5" y="226.9082">Meta</text><line style="stroke:#181818;stroke-width:1.0;" x1="296.5" x2="554" y1="221.6797" y2="221.6797"/></g><!--SRC=[bP5FJy904CNl_HHp4pIjScs81y544ea44Y_4mtIPbedBRZFTDi4_tzsbHIcKHBrrvitlTVPDySecHy4DQ3RajZc15RUs0GIEdIQutt26Cq7bIxQ6P6vzjpSJcxB_i2cSYdq8OQInA63Cc7bhxtK1KsJJj0DLYsUDtuCmF3A4YKcjR71NGHW6m-JsQdYTtC9kfA8O4kinDB0SHD7WvQ0hkwAOplqZXf7NCD4qiaPHxc1v4qMNBNPDgDrQeT22f6BbaJcb9EJ7U_NU3wSJ_Ow9jghUkiC-xeK6QUzi9KF3R-UnfvO87_luoaIpQfPfw_rE77ahX8vrEw4Vr1zYIWwFGj_uHfGtfs_2_Iv0eR665UhUmacfN2aqffGD7vxQJgTsAaYLmcuR2nMvDGKdh7Vbxa1iiau-nr35VmCSPh5FjhehpKhJPFMVwMUIeZx6RuYGfWgDegDH_-BFBm00]--></g></svg>