<?xml version="1.0" encoding="us-ascii" standalone="no"?><svg xmlns="http://www.w3.org/2000/svg" xmlns:xlink="http://www.w3.org/1999/xlink" contentStyleType="text/css" height="393px" preserveAspectRatio="none" style="width:428px;height:393px;background:#FFFFFF;" version="1.1" viewBox="0 0 428 393" width="428px" zoomAndPan="magnify"><defs/><g><text fill="#000000" font-family="sans-serif" font-size="14" font-weight="bold" lengthAdjust="spacing" textLength="400" x="10" y="24.5332">EmigaPractitioner (Profile of Practitioner) - Class Diagram</text><!--class EmigaPractitioner--><g id="elem_EmigaPractitioner"><rect codeLine="6" fill="#F1F1F1" height="333.75" id="EmigaPractitioner" rx="2.5" ry="2.5" style="stroke:#181818;stroke-width:0.5;" width="407" x="7" y="45.6094"/><ellipse cx="150.75" cy="61.6094" fill="#ADD1B2" rx="11" ry="11" style="stroke:#181818;stroke-width:1.0;"/><path d="M153.5156,57.4844 Q153.6719,57.2656 153.8594,57.1563 Q154.0469,57.0469 154.2656,57.0469 Q154.6406,57.0469 154.875,57.3125 Q155.1094,57.5625 155.1094,58.1719 L155.1094,59.625 Q155.1094,60.2344 154.875,60.5 Q154.6406,60.7656 154.2656,60.7656 Q153.9219,60.7656 153.7188,60.5625 Q153.5156,60.375 153.4063,59.8594 Q153.3594,59.5 153.1719,59.3125 Q152.8438,58.9375 152.2344,58.7188 Q151.625,58.5 151,58.5 Q150.2344,58.5 149.5938,58.8281 Q148.9688,59.1563 148.4688,59.9063 Q147.9844,60.6563 147.9844,61.6875 L147.9844,62.7813 Q147.9844,64.0156 148.875,64.8438 Q149.7656,65.6563 151.3594,65.6563 Q152.2969,65.6563 152.9531,65.4063 Q153.3438,65.25 153.7656,64.8125 Q154.0313,64.5469 154.1719,64.4688 Q154.3281,64.3906 154.5313,64.3906 Q154.8594,64.3906 155.1094,64.6563 Q155.375,64.9063 155.375,65.25 Q155.375,65.5938 155.0313,66 Q154.5313,66.5781 153.7344,66.9063 Q152.6563,67.3594 151.3594,67.3594 Q149.8438,67.3594 148.6406,66.7344 Q147.6563,66.2344 146.9688,65.1719 Q146.2813,64.0938 146.2813,62.8125 L146.2813,61.6563 Q146.2813,60.3281 146.8906,59.1875 Q147.5156,58.0313 148.6094,57.4219 Q149.7031,56.7969 150.9375,56.7969 Q151.6719,56.7969 152.3125,56.9688 Q152.9688,57.125 153.5156,57.4844 Z " fill="#000000"/><text fill="#000000" font-family="sans-serif" font-size="14" lengthAdjust="spacing" textLength="111" x="171.25" y="67.3379">EmigaPractitioner</text><line style="stroke:#181818;stroke-width:0.5;" x1="8" x2="413" y1="77.6094" y2="77.6094"/><text fill="#000000" font-family="sans-serif" font-size="14" font-weight="bold" lengthAdjust="spacing" textLength="8" x="13" y="117.752">+</text><text fill="#000000" font-family="sans-serif" font-size="14" lengthAdjust="spacing" textLength="132" x="25" y="117.752">active: boolean [1..1]</text><text fill="#000000" font-family="sans-serif" font-size="14" font-weight="bold" lengthAdjust="spacing" textLength="8" x="13" y="135.3613">+</text><text fill="#000000" font-family="sans-serif" font-size="14" lengthAdjust="spacing" textLength="154" x="25" y="135.3613">name.family: string [1..1]</text><text fill="#000000" font-family="sans-serif" font-size="14" font-weight="bold" lengthAdjust="spacing" textLength="8" x="13" y="152.9707">+</text><text fill="#000000" font-family="sans-serif" font-size="14" lengthAdjust="spacing" textLength="149" x="25" y="152.9707">name.given: string [1..*]</text><text fill="#000000" font-family="sans-serif" font-size="14" font-weight="bold" lengthAdjust="spacing" textLength="8" x="13" y="170.5801">+</text><text fill="#000000" font-family="sans-serif" font-size="14" lengthAdjust="spacing" textLength="149" x="25" y="170.5801">name.prefix: string [0..*]</text><line style="stroke:#181818;stroke-width:1.0;" x1="8" x2="145.5" y1="94.4141" y2="94.4141"/><text fill="#000000" font-family="sans-serif" font-size="14" lengthAdjust="spacing" textLength="130" x="145.5" y="99.6426">Personal Information</text><line style="stroke:#181818;stroke-width:1.0;" x1="275.5" x2="413" y1="94.4141" y2="94.4141"/><text fill="#000000" font-family="sans-serif" font-size="14" font-weight="bold" lengthAdjust="spacing" textLength="8" x="13" y="209.7988">+</text><text fill="#000000" font-family="sans-serif" font-size="14" lengthAdjust="spacing" textLength="383" x="25" y="209.7988">meta.profile:emigaprofile: canonical(StructureDefinition) [0..*]</text><text fill="#000000" font-family="sans-serif" font-size="14" font-weight="bold" lengthAdjust="spacing" textLength="8" x="13" y="227.4082">+</text><text fill="#000000" font-family="sans-serif" font-size="14" lengthAdjust="spacing" textLength="259" x="25" y="227.4082">meta.security:responsibility: Coding [0..1]</text><text fill="#000000" font-family="sans-serif" font-size="14" font-weight="bold" lengthAdjust="spacing" textLength="8" x="13" y="245.0176">+</text><text fill="#000000" font-family="sans-serif" font-size="14" lengthAdjust="spacing" textLength="225" x="25" y="245.0176">meta.security:visibility: Coding [0..1]</text><text fill="#000000" font-family="sans-serif" font-size="14" font-weight="bold" lengthAdjust="spacing" textLength="8" x="13" y="262.627">+</text><text fill="#000000" font-family="sans-serif" font-size="14" lengthAdjust="spacing" textLength="231" x="25" y="262.627">meta.tag:orgvBundleId: Coding [0..1]</text><text fill="#000000" font-family="sans-serif" font-size="14" font-weight="bold" lengthAdjust="spacing" textLength="8" x="13" y="280.2363">+</text><text fill="#000000" font-family="sans-serif" font-size="14" lengthAdjust="spacing" textLength="268" x="25" y="280.2363">meta.tag:orgvBundleVersion: Coding [0..1]</text><text fill="#000000" font-family="sans-serif" font-size="14" font-weight="bold" lengthAdjust="spacing" textLength="8" x="13" y="297.8457">+</text><text fill="#000000" font-family="sans-serif" font-size="14" lengthAdjust="spacing" textLength="207" x="25" y="297.8457">meta.tag:relevance: Coding [0..*]</text><line style="stroke:#181818;stroke-width:1.0;" x1="8" x2="195" y1="186.4609" y2="186.4609"/><text fill="#000000" font-family="sans-serif" font-size="14" lengthAdjust="spacing" textLength="31" x="195" y="191.6895">Meta</text><line style="stroke:#181818;stroke-width:1.0;" x1="226" x2="413" y1="186.4609" y2="186.4609"/><text fill="#000000" font-family="sans-serif" font-size="14" font-weight="bold" lengthAdjust="spacing" textLength="8" x="13" y="337.0645">+</text><text fill="#000000" font-family="sans-serif" font-size="14" lengthAdjust="spacing" textLength="209" x="25" y="337.0645">telecom:Email: ContactPoint [0..*]</text><text fill="#000000" font-family="sans-serif" font-size="14" font-weight="bold" lengthAdjust="spacing" textLength="8" x="13" y="354.6738">+</text><text fill="#000000" font-family="sans-serif" font-size="14" lengthAdjust="spacing" textLength="198" x="25" y="354.6738">telecom:Fax: ContactPoint [0..*]</text><text fill="#000000" font-family="sans-serif" font-size="14" font-weight="bold" lengthAdjust="spacing" textLength="8" x="13" y="372.2832">+</text><text fill="#000000" font-family="sans-serif" font-size="14" lengthAdjust="spacing" textLength="216" x="25" y="372.2832">telecom:Phone: ContactPoint [0..*]</text><line style="stroke:#181818;stroke-width:1.0;" x1="8" x2="162" y1="313.7266" y2="313.7266"/><text fill="#000000" font-family="sans-serif" font-size="14" lengthAdjust="spacing" textLength="97" x="162" y="318.9551">Communication</text><line style="stroke:#181818;stroke-width:1.0;" x1="259" x2="413" y1="313.7266" y2="313.7266"/></g><!--SRC=[bP9FQy904CNl-HHpgxR4rciG3rKB7eH0ePVImoHEuj3TsR2x2KhfT-yc4cogfVOu-txlCN_MlRDKQ563OY5_g0YCzJiJGUJPAuALvX9JYtaesGXP6ANM51maKy1tOGmnB1Gw1ql6CaI6Z1lO8ClnESexyIpm8ufZICaw8wXWBOMn6bi9uZYQPVExsNqsXvPlA87C64Key3gTJAPl9rrGqwH0pUgGWFEMfRpCb2561iZjJwIoLF3-n3nqJEXoGnu7NUdm4F1k7mcra_K5v2X6E4SrUlQspdrjQHbYfPjwt8SEanpbjML_I2ovoeZZZ5LRmi9i-qwclveQlixWiKoCBPl7MhQArjl_q2_XJg7_losM53KeEGtGuneNHkkwtStPbNrmvKOdAusiMgVuSFZKiFYpZVNi4-wl9DDT-6-NsSyl]--></g></svg>